<svg width="110" height="80" viewBox="0 0 110 80" fill="none" xmlns="http://www.w3.org/2000/svg">
<path d="M84.6607 27.9968L83.6079 27.6129L74.69 10.5908C73.0151 7.3919 70.5175 4.71666 67.4645 2.85119C64.4115 0.985723 60.9178 0.00019326 57.3571 1.66625e-08H34.9014C30.7778 -0.000171309 26.7587 1.32086 23.4137 3.77589C20.0686 6.23093 17.5674 9.69543 16.2643 13.6785L12.0136 26.661C8.45235 28.1891 5.41303 30.7528 3.2761 34.031C1.13917 37.3093 -0.000421586 41.1565 1.16995e-07 45.0909V53.9939C1.16995e-07 59.6733 3.32357 64.5527 8.09286 66.7525C8.71048 70.3551 10.5218 73.6335 13.2252 76.0417C15.9286 78.4499 19.3608 79.8425 22.9502 79.9874C26.5396 80.1324 30.0693 79.021 32.9516 76.8384C35.8339 74.6558 37.8947 71.5338 38.7907 67.9923H71.2093C72.1053 71.5338 74.1661 74.6558 77.0484 76.8384C79.9307 79.021 83.4604 80.1324 87.0498 79.9874C90.6392 79.8425 94.0714 78.4499 96.7748 76.0417C99.4782 73.6335 101.29 70.3551 101.907 66.7525C104.319 65.6441 106.365 63.8508 107.801 61.5877C109.236 59.3246 110 56.6878 110 53.9939V51.2822C109.999 47.154 108.744 43.1272 106.406 39.7544C104.068 36.3816 100.762 33.8281 96.9414 32.4443L85.0771 28.1488V27.9968H84.6607ZM34.9014 7.9991H43.2143V27.9968H19.855L23.7129 16.2062C24.495 13.8153 25.9968 11.7359 28.005 10.2628C30.0133 8.78965 32.4262 7.99765 34.9014 7.9991ZM51.0714 7.9991H57.3571C59.4938 7.99832 61.5904 8.58889 63.4228 9.70762C65.2552 10.8263 66.7544 12.4312 67.76 14.3504L74.91 27.9968H51.0714V7.9991ZM83.3093 35.9959L94.3093 39.9795C96.6012 40.81 98.5845 42.3422 99.987 44.3659C101.39 46.3896 102.143 48.8055 102.143 51.2822V53.9939C102.143 55.3937 101.671 56.6816 100.886 57.7055C99.5987 54.63 97.3977 52.0423 94.5919 50.3058C91.7861 48.5692 88.5165 47.7711 85.2423 48.0235C81.9681 48.2759 78.8538 49.5662 76.3368 51.713C73.8199 53.8599 72.0267 56.7556 71.2093 59.9932H38.7907C37.9733 56.7556 36.1801 53.8599 33.6632 51.713C31.1462 49.5662 28.0319 48.2759 24.7577 48.0235C21.4835 47.7711 18.2139 48.5692 15.4081 50.3058C12.6023 52.0423 10.4013 54.63 9.11429 57.7055C8.29657 56.6477 7.8536 55.3399 7.85714 53.9939V45.0909C7.85714 41.4913 9.42857 38.2117 11.9429 35.9959H83.3093ZM15.7143 63.9928C15.7143 61.8713 16.5421 59.8367 18.0156 58.3366C19.4891 56.8364 21.4876 55.9937 23.5714 55.9937C25.6553 55.9937 27.6538 56.8364 29.1273 58.3366C30.6008 59.8367 31.4286 61.8713 31.4286 63.9928C31.4286 66.1143 30.6008 68.1489 29.1273 69.649C27.6538 71.1491 25.6553 71.9919 23.5714 71.9919C21.4876 71.9919 19.4891 71.1491 18.0156 69.649C16.5421 68.1489 15.7143 66.1143 15.7143 63.9928ZM86.4286 55.9937C88.5124 55.9937 90.5109 56.8364 91.9844 58.3366C93.4579 59.8367 94.2857 61.8713 94.2857 63.9928C94.2857 66.1143 93.4579 68.1489 91.9844 69.649C90.5109 71.1491 88.5124 71.9919 86.4286 71.9919C84.3447 71.9919 82.3462 71.1491 80.8727 69.649C79.3992 68.1489 78.5714 66.1143 78.5714 63.9928C78.5714 61.8713 79.3992 59.8367 80.8727 58.3366C82.3462 56.8364 84.3447 55.9937 86.4286 55.9937Z" fill="#944BBB"/>
</svg>
