<svg width="31" height="23" viewBox="0 0 31 23" fill="none" xmlns="http://www.w3.org/2000/svg">
<path d="M0 3.83333C0 2.81667 0.403868 1.84165 1.12276 1.12276C1.84165 0.403868 2.81667 0 3.83333 0H26.8333C27.85 0 28.825 0.403868 29.5439 1.12276C30.2628 1.84165 30.6667 2.81667 30.6667 3.83333V19.1667C30.6667 20.1833 30.2628 21.1584 29.5439 21.8772C28.825 22.5961 27.85 23 26.8333 23H3.83333C2.81667 23 1.84165 22.5961 1.12276 21.8772C0.403868 21.1584 0 20.1833 0 19.1667V3.83333ZM3.83333 1.91667C3.325 1.91667 2.83749 2.1186 2.47805 2.47805C2.1186 2.83749 1.91667 3.325 1.91667 3.83333V5.75H28.75V3.83333C28.75 3.325 28.5481 2.83749 28.1886 2.47805C27.8292 2.1186 27.3417 1.91667 26.8333 1.91667H3.83333ZM28.75 9.58333H1.91667V19.1667C1.91667 19.675 2.1186 20.1625 2.47805 20.522C2.83749 20.8814 3.325 21.0833 3.83333 21.0833H26.8333C27.3417 21.0833 27.8292 20.8814 28.1886 20.522C28.5481 20.1625 28.75 19.675 28.75 19.1667V9.58333Z" fill="#944BBB"/>
<path d="M3.83325 15.3333C3.83325 14.825 4.03519 14.3374 4.39463 13.978C4.75408 13.6186 5.24159 13.4166 5.74992 13.4166H7.66659C8.17492 13.4166 8.66243 13.6186 9.02187 13.978C9.38132 14.3374 9.58325 14.825 9.58325 15.3333V17.25C9.58325 17.7583 9.38132 18.2458 9.02187 18.6052C8.66243 18.9647 8.17492 19.1666 7.66659 19.1666H5.74992C5.24159 19.1666 4.75408 18.9647 4.39463 18.6052C4.03519 18.2458 3.83325 17.7583 3.83325 17.25V15.3333Z" fill="#944BBB"/>
</svg>
