<svg width="95" height="90" viewBox="0 0 95 90" fill="none" xmlns="http://www.w3.org/2000/svg">
<path d="M43.4134 5.97025C43.6749 5.53078 43.8455 5.04327 43.9152 4.53663C43.9848 4.02998 43.952 3.51451 43.8188 3.02078C43.6855 2.52704 43.4545 2.06508 43.1394 1.66228C42.8243 1.25949 42.4315 0.924061 41.9843 0.675878C41.5372 0.427695 41.0447 0.271812 40.5362 0.217469C40.0277 0.163125 39.5135 0.211427 39.024 0.359512C38.5345 0.507597 38.0797 0.75245 37.6866 1.07956C37.2935 1.40666 36.97 1.80937 36.7354 2.26379L-8.4028 83.5265C-8.66434 83.9659 -8.83499 84.4534 -8.90463 84.9601C-8.97427 85.4667 -8.94149 85.9822 -8.80822 86.4759C-8.67495 86.9697 -8.44391 87.4316 -8.1288 87.8344C-7.81369 88.2372 -7.42092 88.5727 -6.97377 88.8208C-6.52662 89.069 -6.03419 89.2249 -5.52567 89.2792C-5.01716 89.3336 -4.50291 89.2853 -4.01341 89.1372C-3.52391 88.9891 -3.06913 88.7443 -2.67601 88.4172C-2.2829 88.09 -1.95945 87.6873 -1.72486 87.2329L13.3964 60.0099C18.8964 62.9241 25.0667 65.4361 28.7729 70.6561C31.047 73.939 34.0684 76.6347 37.5882 78.5214C44.1683 82.047 51.7483 80.4378 58.2292 83.9687L67.0115 88.6673C68.7808 89.6213 71.2368 88.8732 72.1836 87.1014L93.7486 46.648L93.7876 46.6295C94.22 45.7239 94.2923 44.6879 93.9898 43.7311C93.6874 42.7743 93.0328 41.968 92.1585 41.4755L83.3762 36.7769C76.81 33.2805 69.254 34.7767 62.7526 31.3034C59.8389 29.7395 57.3273 27.5216 55.4151 24.8236C51.4196 19.2087 45.3049 16.3353 39.376 13.2361L43.4231 5.96561L43.4134 5.97025ZM30.1027 29.9283L37.53 16.5776C41.6321 18.7024 46.0757 20.6648 49.4563 23.8143L42.2988 37.2043C38.7924 34.0668 34.2788 32.0957 30.1099 29.9309L30.1027 29.9283ZM15.2543 56.6807L22.6867 43.3156C26.9297 45.5229 31.5466 47.5227 35.1195 50.7244L42.3411 37.268C46.3862 40.8973 48.8068 45.5138 53.8141 48.1715L61.0459 34.6864C66.0743 37.376 71.2106 36.8679 76.4606 38.2738L69.2646 51.6582C63.9997 50.2714 58.8111 50.8581 53.7946 48.1808L46.6686 61.6875C41.6521 59.0102 39.2294 54.3768 35.1601 50.747L27.9385 64.2034C24.2675 60.9586 19.5662 58.945 15.2543 56.6807ZM46.6733 61.6972C51.6754 64.3694 56.8907 63.7759 62.1531 65.17L69.2646 51.6582C74.1335 52.9042 78.5187 55.8516 82.8965 58.2042L75.8189 71.7119C71.4313 69.3638 67.0343 66.4042 62.1603 65.1726L54.9387 78.629C49.7117 77.1583 44.406 77.8007 39.4542 75.1464L46.6758 61.69L46.6733 61.6972Z" fill="#944BBB"/>
</svg>
