<svg width="95" height="90" viewBox="0 0 95 90" fill="none" xmlns="http://www.w3.org/2000/svg">
<path d="M51.1037 5.97025C50.8422 5.53078 50.6715 5.04327 50.6019 4.53663C50.5323 4.02998 50.565 3.51451 50.6983 3.02078C50.8316 2.52704 51.0626 2.06508 51.3777 1.66228C51.6928 1.25949 52.0856 0.924061 52.5328 0.675878C52.9799 0.427695 53.4723 0.271812 53.9809 0.217469C54.4894 0.163125 55.0036 0.211427 55.4931 0.359512C55.9826 0.507597 56.4374 0.75245 56.8305 1.07956C57.2236 1.40666 57.5471 1.80937 57.7817 2.26379L102.92 83.5265C103.181 83.9659 103.352 84.4534 103.422 84.9601C103.491 85.4667 103.459 85.9822 103.325 86.4759C103.192 86.9697 102.961 87.4316 102.646 87.8344C102.331 88.2372 101.938 88.5726 101.491 88.8208C101.044 89.069 100.551 89.2249 100.043 89.2792C99.5343 89.3336 99.02 89.2853 98.5305 89.1372C98.041 88.9891 97.5862 88.7443 97.1931 88.4172C96.8 88.09 96.4765 87.6873 96.2419 87.2329L81.1206 60.0099C75.6207 62.9241 69.4504 65.4361 65.7442 70.6561C63.47 73.939 60.4487 76.6347 56.9289 78.5214C50.3488 82.047 42.7688 80.4378 36.2879 83.9687L27.5055 88.6673C25.7363 89.6213 23.2803 88.8732 22.3335 87.1014L0.76852 46.648L0.729479 46.6295C0.297085 45.7239 0.224798 44.6879 0.527244 43.7311C0.829682 42.7743 1.48427 41.968 2.35858 41.4755L11.1409 36.7769C17.7071 33.2805 25.2631 34.7767 31.7645 31.3034C34.6782 29.7395 37.1898 27.5216 39.102 24.8236C43.0975 19.2087 49.2122 16.3353 55.141 13.2361L51.094 5.96561L51.1037 5.97025ZM64.4144 29.9283L56.9871 16.5776C52.885 18.7024 48.4414 20.6648 45.0608 23.8143L52.2182 37.2043C55.7247 34.0668 60.2383 32.0957 64.4072 29.9309L64.4144 29.9283ZM79.2628 56.6807L71.8303 43.3156C67.5874 45.5229 62.9705 47.5227 59.3976 50.7244L52.176 37.268C48.1308 40.8973 45.7103 45.5138 40.703 48.1715L33.4712 34.6864C28.4428 37.376 23.3065 36.8679 18.0565 38.2738L25.2525 51.6582C30.5174 50.2714 35.706 50.8581 40.7225 48.1808L47.8485 61.6875C52.865 59.0102 55.2876 54.3768 59.357 50.747L66.5786 64.2034C70.2496 60.9586 74.9509 58.945 79.2628 56.6807ZM47.8438 61.6972C42.8417 64.3694 37.6263 63.7759 32.364 65.17L25.2525 51.6582C20.3835 52.9042 15.9984 55.8516 11.6206 58.2042L18.6982 71.7119C23.0858 69.3638 27.4828 66.4042 32.3568 65.1726L39.5784 78.629C44.8054 77.1583 50.1111 77.8007 55.0629 75.1464L47.8413 61.69L47.8438 61.6972Z" fill="#944BBB"/>
</svg>
