<svg width="139" height="31" viewBox="0 0 139 31" fill="none" xmlns="http://www.w3.org/2000/svg">
<path d="M0.288054 23.1998L0.640121 21.4395C2.86988 22.293 5.43036 22.7198 8.32157 22.7198C13.1118 22.7198 15.8697 20.9061 16.5951 17.2787C17.1286 14.6116 15.8377 13.278 12.7224 13.278H8.01752C3.76071 13.278 2.01638 11.3576 2.78453 7.51688C3.65936 3.14272 7.21736 0.955643 13.4585 0.955643C16.019 0.955643 18.4355 1.2757 20.7079 1.91582L20.3879 3.51613C18.1368 2.76932 15.731 2.39592 13.1705 2.39592C8.04952 2.39592 5.14764 4.1029 4.46484 7.51688C3.91007 10.2907 5.20098 11.6777 8.33758 11.6777H13.0425C17.2779 11.6777 19.0223 13.5447 18.2755 17.2787C17.3579 21.8663 13.944 24.16 8.03352 24.16C5.14231 24.16 2.56048 23.84 0.288054 23.1998ZM38.1352 7.19682L34.7746 24H33.4143L34.1024 18.975C31.4673 22.325 28.6401 24 25.6208 24C22.7083 24 21.5774 22.373 22.2282 19.1191L24.6127 7.19682H26.293L23.9085 19.1191C23.4604 21.3702 24.1592 22.4957 26.0049 22.4957C28.9815 22.4957 31.798 20.7194 34.4545 17.1667L36.4549 7.19682H38.1352ZM54.1222 9.08518C52.7353 8.82913 51.295 8.70111 49.8014 8.70111C45.8007 8.70111 43.3415 11.0109 42.424 15.6304C41.5172 20.1433 42.4347 22.3997 45.1765 22.3997C47.7797 22.3997 50.1481 21.0448 52.2819 18.3349L54.1222 9.08518ZM52.826 24H51.4657L51.9458 19.9992C49.7267 22.6664 47.3583 24 44.8405 24C41.0211 24 39.6662 21.2208 40.7757 15.6624C41.9066 10.0187 45.0592 7.19682 50.2335 7.19682C52.5059 7.19682 54.4423 7.4262 56.0426 7.88495L52.826 24ZM72.2217 1.11567L67.9328 22.5597H81.1834L80.8953 24H65.9645L70.5413 1.11567H72.2217ZM86.8484 15.5344C85.8882 20.3246 87.3552 22.7198 91.2493 22.7198C95.1433 22.7198 97.5704 20.3246 98.5306 15.5344C99.4695 10.8295 97.9919 8.47707 94.0978 8.47707C90.2037 8.47707 87.7873 10.8295 86.8484 15.5344ZM85.1521 15.5984C86.2936 9.89067 89.3716 7.03679 94.3858 7.03679C99.4001 7.03679 101.336 9.89067 100.195 15.5984C99.0534 21.2955 95.9755 24.144 90.9612 24.144C85.9683 24.144 84.0319 21.2955 85.1521 15.5984ZM117.046 9.08518C115.659 8.82913 114.219 8.70111 112.725 8.70111C108.725 8.70111 106.265 11.0109 105.348 15.6304C104.441 20.1433 105.359 22.3997 108.1 22.3997C110.704 22.3997 113.072 21.0448 115.206 18.3349L117.046 9.08518ZM115.75 24C114.939 28.0541 112.064 30.0811 107.124 30.0811C105.055 30.0811 103.273 29.8144 101.779 29.281L102.067 27.8407C103.593 28.3742 105.385 28.6409 107.444 28.6409C111.242 28.6409 113.451 27.0939 114.07 24L114.87 19.9992C112.651 22.6664 110.282 24 107.764 24C103.945 24 102.59 21.2208 103.7 15.6624C104.83 10.0187 107.983 7.19682 113.157 7.19682C115.43 7.19682 117.366 7.4262 118.966 7.88495L115.75 24ZM123.463 15.5344C122.503 20.3246 123.97 22.7198 127.864 22.7198C131.758 22.7198 134.185 20.3246 135.146 15.5344C136.084 10.8295 134.607 8.47707 130.713 8.47707C126.819 8.47707 124.402 10.8295 123.463 15.5344ZM121.767 15.5984C122.909 9.89067 125.986 7.03679 131.001 7.03679C136.015 7.03679 137.951 9.89067 136.81 15.5984C135.668 21.2955 132.59 24.144 127.576 24.144C122.583 24.144 120.647 21.2955 121.767 15.5984Z" fill="white"/>
</svg>
