<svg width="29" height="22" viewBox="0 0 29 22" fill="none" xmlns="http://www.w3.org/2000/svg">
<path d="M2 4.57143C2 3.88944 2.26339 3.23539 2.73223 2.75315C3.20107 2.27092 3.83696 2 4.5 2H24.5C25.163 2 25.7989 2.27092 26.2678 2.75315C26.7366 3.23539 27 3.88944 27 4.57143V17.4286C27 18.1106 26.7366 18.7646 26.2678 19.2468C25.7989 19.7291 25.163 20 24.5 20H4.5C3.83696 20 3.20107 19.7291 2.73223 19.2468C2.26339 18.7646 2 18.1106 2 17.4286V4.57143Z" stroke="#944BBB" stroke-width="2.9" stroke-linecap="round" stroke-linejoin="round"/>
<path d="M14.5 14.8571C16.5711 14.8571 18.25 13.1302 18.25 11C18.25 8.86972 16.5711 7.14282 14.5 7.14282C12.4289 7.14282 10.75 8.86972 10.75 11C10.75 13.1302 12.4289 14.8571 14.5 14.8571Z" stroke="#944BBB" stroke-width="2.9" stroke-linecap="round" stroke-linejoin="round"/>
<path d="M2 7.14286C3.32608 7.14286 4.59785 6.60102 5.53553 5.63655C6.47322 4.67208 7 3.36397 7 2" stroke="#944BBB" stroke-width="2.9" stroke-linecap="round" stroke-linejoin="round"/>
<path d="M22 20C22 18.636 22.5268 17.3279 23.4645 16.3634C24.4021 15.399 25.6739 14.8571 27 14.8571" stroke="#944BBB" stroke-width="2.9" stroke-linecap="round" stroke-linejoin="round"/>
</svg>
