<svg width="228" height="179" viewBox="0 0 228 179" fill="none" xmlns="http://www.w3.org/2000/svg">
<path d="M118.798 11.8256C118.261 10.99 117.932 10.0495 117.833 9.05996C117.734 8.07043 117.866 7.05196 118.221 6.06494C118.576 5.07791 119.147 4.14242 119.9 3.31392C120.653 2.48541 121.573 1.78076 122.605 1.24172C123.637 0.702691 124.76 0.340252 125.908 0.175891C127.056 0.0115297 128.206 0.0485902 129.288 0.28488C130.371 0.521169 131.364 0.951877 132.21 1.55147C133.056 2.15106 133.737 2.90734 134.212 3.77546L226.403 158.658C226.941 159.493 227.269 160.434 227.369 161.423C227.468 162.413 227.336 163.431 226.981 164.418C226.626 165.405 226.055 166.341 225.302 167.169C224.549 167.998 223.629 168.703 222.597 169.242C221.565 169.781 220.442 170.143 219.294 170.307C218.146 170.472 216.996 170.435 215.914 170.198C214.831 169.962 213.838 169.531 212.992 168.932C212.146 168.332 211.465 167.576 210.989 166.708L180.105 114.822C167.426 121.18 153.287 126.821 144.375 137.516C138.898 144.235 131.809 149.883 123.693 153.994C108.519 161.677 91.6789 159.365 76.7273 167.047L56.4758 177.288C52.3953 179.365 46.9645 178.17 45.0384 174.789L1.17754 97.5845L1.09197 97.5524C0.223184 95.8185 0.177754 93.7871 0.964871 91.8694C1.75199 89.9516 3.31288 88.2905 5.33178 87.2223L25.5832 76.9815C40.7224 69.3576 57.5212 71.4503 72.5123 63.8791C79.2317 60.4717 85.1219 55.822 89.7202 50.295C99.326 38.7906 113.381 32.444 127.044 25.6737L118.777 11.8176L118.798 11.8256ZM145.985 57.4881L130.813 32.0436C121.362 36.6893 111.162 41.0541 103.215 47.6357L117.777 73.1879C126.005 66.6157 136.363 62.226 145.968 57.494L145.985 57.4881ZM176.309 108.478L161.127 83.0057C151.35 87.83 140.757 92.2878 132.373 98.9938L117.675 73.3181C108.181 80.9192 102.225 90.2805 90.681 96.0776L75.9631 70.3464C64.368 76.2086 52.8915 75.788 40.9437 79.1481L55.5925 104.685C67.5716 101.361 79.1567 101.93 90.7238 96.0937L105.201 121.879C116.769 116.043 122.731 106.648 132.279 99.0428L146.977 124.719C155.587 117.917 166.371 113.422 176.309 108.478V108.478ZM105.19 121.899C93.6557 127.724 82.0114 127.144 70.0372 130.482L55.5925 104.685C44.5184 107.687 34.3386 113.984 24.2425 119.11L38.6116 144.903C48.7291 139.785 58.9368 133.463 70.0208 130.488L84.7189 156.164C96.6223 152.679 108.464 153.345 119.883 147.561L105.185 121.885L105.19 121.899Z" fill="#944BBB"/>
</svg>
